<svg width="28" height="28" viewBox="0 0 28 28" fill="none" xmlns="http://www.w3.org/2000/svg">
<path d="M27.0531 21.3958C27.0531 24.5111 24.5122 27.0521 21.3969 27.0521C20.3353 27.0521 19.3259 26.7564 18.4728 26.2514C16.8369 25.2418 15.7406 23.4493 15.7406 21.3955C15.7406 18.2802 18.2815 15.7393 21.3969 15.7393C23.4509 15.7393 25.2431 16.8358 26.2528 18.4718C26.7761 19.3574 27.0525 20.3671 27.0531 21.3958Z" fill="#93C639"/>
<path d="M21.3968 27.75C20.2443 27.75 19.1106 27.4391 18.1184 26.8525C16.1893 25.661 15.0443 23.625 15.0443 21.3966C15.0443 17.8938 17.8943 15.0435 21.3968 15.0435C23.6246 15.0435 25.6612 16.1891 26.8449 18.1063C27.4362 19.1021 27.7486 20.2387 27.7493 21.3969C27.7493 24.8997 24.8993 27.75 21.3968 27.75ZM21.3968 16.4372C18.6618 16.4372 16.4368 18.6619 16.4368 21.3966C16.4368 23.1388 17.3346 24.7313 18.8384 25.6594C19.6137 26.116 20.4971 26.3566 21.3968 26.3563C24.1318 26.3563 26.3568 24.1316 26.3568 21.3969C26.3568 20.4928 26.1137 19.6038 25.6534 18.8272C24.7321 17.3347 23.1381 16.4372 21.3968 16.4372Z" fill="#14191C"/>
<path d="M27.0531 13.9989C27.0531 15.5655 26.7744 17.0796 26.2525 18.4721C25.2428 16.8358 23.4506 15.7396 21.3966 15.7396C18.2813 15.7396 15.7403 18.2805 15.7403 21.3958C15.7403 23.4492 16.8366 25.2421 18.4725 26.2517C17.0806 26.7739 15.5663 27.0524 14 27.0524C6.7944 27.0524 0.946899 21.2046 0.946899 13.9992C0.946899 6.79393 6.7944 0.945801 14 0.945801C21.2056 0.945801 27.0531 6.79361 27.0531 13.9989Z" fill="#FF8F7A"/>
<path d="M14 27.75C6.41842 27.75 0.25061 21.5822 0.25061 14C0.25061 6.41781 6.41842 0.25 14 0.25C21.5815 0.25 27.7494 6.41781 27.7494 14C27.7494 15.6334 27.465 17.2209 26.9044 18.7166C26.8584 18.8383 26.7793 18.9449 26.6761 19.0241C26.5728 19.1034 26.4495 19.1523 26.32 19.1653C26.1903 19.1778 26.0597 19.1537 25.943 19.0957C25.8264 19.0377 25.7283 18.9481 25.66 18.8372C24.7319 17.3347 23.1378 16.4372 21.3965 16.4372C18.6615 16.4372 16.4365 18.6619 16.4365 21.3966C16.4365 23.1387 17.3344 24.7312 18.8381 25.6594C18.9488 25.728 19.0381 25.8263 19.0959 25.943C19.1537 26.0598 19.1776 26.1904 19.165 26.3201C19.1523 26.4497 19.1037 26.5732 19.0245 26.6767C18.9453 26.7801 18.8387 26.8593 18.7169 26.9053C17.2215 27.4644 15.6344 27.75 14 27.75ZM14 1.64375C7.18624 1.64375 1.64311 7.18625 1.64311 14C1.64311 20.8138 7.18624 26.3563 14 26.3563C15.0256 26.3563 16.0294 26.2322 16.9978 25.9856C16.3786 25.3927 15.8862 24.6802 15.5504 23.8914C15.2146 23.1026 15.0423 22.2539 15.044 21.3966C15.044 17.8937 17.894 15.0434 21.3965 15.0434C22.254 15.0419 23.1028 15.2144 23.8917 15.5504C24.6806 15.8863 25.3932 16.3789 25.9862 16.9981C26.234 16.0181 26.3585 15.0109 26.3569 14C26.3569 7.18625 20.8137 1.64375 14 1.64375Z" fill="#14191C"/>
<path d="M7.43848 6.3418H20.5616V7.73555H7.43848V6.3418ZM12.3069 9.82242H20.9619V11.2162H12.3069V9.82242Z" fill="#14191C"/>
<path d="M15.2481 20.1496L9.60931 14.5102C9.51187 14.4128 9.44549 14.2887 9.41858 14.1536C9.39166 14.0184 9.40541 13.8783 9.45808 13.751C9.51076 13.6237 9.6 13.5148 9.71452 13.4382C9.82904 13.3616 9.96371 13.3207 10.1015 13.3205H13.5824C13.9504 13.3209 14.3147 13.2483 14.6545 13.1072C14.9943 12.966 15.3027 12.759 15.5621 12.498C16.0012 12.0577 16.2762 11.514 16.3562 10.9293C16.3712 10.7765 16.3846 10.654 16.3846 10.5196C16.3846 8.98492 15.1277 7.73555 13.5824 7.73555V6.3418C15.8952 6.3418 17.7768 8.21648 17.7768 10.5196C17.7768 10.703 17.7609 10.8696 17.7427 11.0499C17.6143 12.0068 17.2034 12.8243 16.5468 13.4821C15.7509 14.2774 14.6984 14.7143 13.5824 14.7143H11.7824L16.2331 19.164L15.2481 20.1496ZM23.2462 19.6615L20.6112 22.2977L19.5324 21.2168C19.5224 21.2071 19.5112 21.2002 19.5006 21.1909L18.5212 22.1702C18.5306 22.1805 18.5374 22.1924 18.5474 22.2024L20.1184 23.7746C20.249 23.9037 20.4259 23.9787 20.6106 23.9787C20.7952 23.9787 20.9727 23.904 21.1031 23.7746L24.2309 20.6465L23.2462 19.6615Z" fill="#14191C"/>
</svg>
