<svg width="500" height="500" viewBox="0 0 500 500" fill="none" xmlns="http://www.w3.org/2000/svg">
<path d="M250 250C265.648 250 280.655 243.784 291.719 232.719C302.784 221.655 309 206.648 309 191C309 175.352 302.784 160.345 291.719 149.281C280.655 138.216 265.648 132 250 132C234.352 132 219.345 138.216 208.281 149.281C197.216 160.345 191 175.352 191 191C191 206.648 197.216 221.655 208.281 232.719C219.345 243.784 234.352 250 250 250ZM289.333 191C289.333 201.432 285.189 211.436 277.813 218.813C270.436 226.189 260.432 230.333 250 230.333C239.568 230.333 229.564 226.189 222.187 218.813C214.811 211.436 210.667 201.432 210.667 191C210.667 180.568 214.811 170.564 222.187 163.187C229.564 155.811 239.568 151.667 250 151.667C260.432 151.667 270.436 155.811 277.813 163.187C285.189 170.564 289.333 180.568 289.333 191ZM368 348.333C368 368 348.333 368 348.333 368H151.667C151.667 368 132 368 132 348.333C132 328.667 151.667 269.667 250 269.667C348.333 269.667 368 328.667 368 348.333ZM348.333 348.255C348.314 343.417 345.305 328.863 331.971 315.529C319.148 302.707 295.017 289.333 250 289.333C204.963 289.333 180.852 302.707 168.029 315.529C154.695 328.863 151.706 343.417 151.667 348.255H348.333Z" fill="white"/>
</svg>
