<svg width="512" height="512" viewBox="0 0 512 512" fill="none" xmlns="http://www.w3.org/2000/svg">
<path d="M265.257 236.498V342.047C265.258 343.263 265.02 344.467 264.555 345.591C264.09 346.714 263.409 347.735 262.549 348.595C261.689 349.455 260.668 350.137 259.544 350.602C258.42 351.066 257.216 351.305 256 351.304H255.575C253.196 351.196 250.95 350.174 249.305 348.452C247.659 346.729 246.742 344.439 246.743 342.057V236.498C246.741 234.116 247.658 231.824 249.303 230.102C250.949 228.379 253.195 227.358 255.575 227.251H256C257.215 227.25 258.418 227.489 259.541 227.953C260.664 228.418 261.684 229.099 262.544 229.957C263.403 230.816 264.085 231.835 264.551 232.958C265.016 234.08 265.256 235.283 265.257 236.498ZM308.398 227.451C305.951 227.248 303.523 228.026 301.649 229.613C299.774 231.2 298.607 233.467 298.404 235.914L289.7 341.099C289.674 341.361 289.664 341.611 289.664 341.878C289.679 344.259 290.611 346.542 292.265 348.255C293.92 349.967 296.17 350.976 298.549 351.073C300.928 351.17 303.253 350.347 305.041 348.775C306.83 347.203 307.944 345.002 308.152 342.63L316.856 237.445C316.856 237.184 316.887 236.933 316.887 236.667C316.885 234.346 316.011 232.111 314.439 230.404C312.867 228.697 310.711 227.643 308.398 227.451ZM213.596 235.914C213.387 233.542 212.273 231.342 210.485 229.77C208.697 228.198 206.372 227.375 203.993 227.472C201.614 227.568 199.364 228.578 197.709 230.29C196.055 232.002 195.123 234.286 195.108 236.667C195.108 236.928 195.108 237.179 195.139 237.445L203.843 342.63C204.051 345.002 205.165 347.203 206.954 348.775C208.742 350.347 211.067 351.17 213.446 351.073C215.825 350.976 218.075 349.967 219.73 348.255C221.384 346.542 222.316 344.259 222.331 341.878C222.331 341.622 222.331 341.366 222.3 341.099L213.596 235.914ZM504.32 256C504.32 393.144 393.144 504.32 256 504.32C118.856 504.32 7.67999 393.144 7.67999 256C7.67999 118.856 118.856 7.67993 256 7.67993C393.144 7.67993 504.32 118.856 504.32 256ZM337.316 185.236H173.829C171.885 185.237 169.962 185.642 168.184 186.428C166.405 187.213 164.81 188.361 163.501 189.798C162.191 191.235 161.195 192.929 160.578 194.773C159.96 196.616 159.733 198.568 159.913 200.504L176.942 384.246C177.264 387.714 178.869 390.938 181.443 393.285C184.017 395.632 187.375 396.933 190.858 396.933H320.906C324.402 396.939 327.772 395.635 330.353 393.278C332.934 390.92 334.538 387.681 334.848 384.2L351.232 200.458C351.404 198.526 351.172 196.579 350.551 194.742C349.93 192.904 348.933 191.216 347.624 189.784C346.315 188.353 344.723 187.209 342.948 186.426C341.174 185.643 339.256 185.238 337.316 185.236ZM366.316 159.002C366.317 156.932 365.91 154.882 365.119 152.969C364.327 151.056 363.166 149.319 361.703 147.855C360.239 146.391 358.501 145.231 356.589 144.439C354.676 143.648 352.626 143.241 350.556 143.242H296.602C295.773 135.508 292.113 128.353 286.327 123.155C280.54 117.956 273.036 115.081 265.257 115.082H246.743C238.964 115.081 231.46 117.956 225.673 123.155C219.887 128.353 216.227 135.508 215.398 143.242H161.444C157.264 143.242 153.256 144.903 150.3 147.858C147.345 150.813 145.684 154.822 145.684 159.002C145.684 163.181 147.345 167.19 150.3 170.145C153.256 173.101 157.264 174.761 161.444 174.761H350.556C354.736 174.761 358.744 173.101 361.7 170.145C364.655 167.19 366.316 163.181 366.316 159.002Z" fill="#FF0000"/>
</svg>
