<svg width="512" height="512" viewBox="0 0 512 512" fill="none" xmlns="http://www.w3.org/2000/svg">
<g clip-path="url(#clip0_112_2)">
<path d="M256 0C114.836 0 0 114.836 0 256C0 397.164 114.836 512 256 512C397.164 512 512 397.164 512 256C512 114.836 397.164 0 256 0Z" fill="#FF1100"/>
<path d="M350.273 320.105C358.613 328.449 358.613 341.93 350.273 350.273C348.294 352.257 345.942 353.83 343.353 354.903C340.765 355.976 337.989 356.526 335.187 356.523C329.727 356.523 324.266 354.433 320.105 350.273L256 286.164L191.895 350.274C189.916 352.258 187.565 353.831 184.977 354.904C182.389 355.976 179.614 356.527 176.812 356.524C174.01 356.527 171.235 355.976 168.646 354.904C166.057 353.831 163.706 352.258 161.727 350.274C153.387 341.93 153.387 328.449 161.727 320.105L225.836 256L161.726 191.895C153.386 183.551 153.386 170.07 161.726 161.727C170.07 153.387 183.551 153.387 191.895 161.727L256 225.836L320.105 161.726C328.449 153.386 341.93 153.386 350.273 161.726C358.613 170.07 358.613 183.551 350.273 191.895L286.164 256L350.273 320.105Z" fill="#FAFAFA"/>
</g>
<defs>
<clipPath id="clip0_112_2">
<rect width="512" height="512" fill="white"/>
</clipPath>
</defs>
</svg>
