<svg width="512" height="512" viewBox="0 0 512 512" fill="none" xmlns="http://www.w3.org/2000/svg">
<path d="M55.726 408.143H456.274C484.446 368.243 501.002 319.556 501.002 266.998C501.002 131.687 391.311 21.996 256 21.996C120.689 21.996 10.998 131.687 10.998 266.998C10.998 319.556 27.554 368.243 55.726 408.143Z" fill="#D0CFFF"/>
<path d="M451.626 396.858C436.389 366.385 409.647 357.876 397.463 355.536C397.463 355.536 366.3 349.847 338.766 338.652C337.919 341.359 336.073 343.761 333.365 345.221C314.581 355.349 289.245 363.658 256.666 363.658C250.322 363.659 243.982 363.327 237.672 362.663C237.828 363.014 237.976 363.363 238.141 363.717C231.435 364.565 209.958 367.829 188.725 376.938C154.704 391.53 136.721 414.392 136.721 443.052V481.042C172.02 500.758 212.695 512 256 512C338.753 512 411.917 470.967 456.274 408.143C454.874 404.052 453.331 400.268 451.626 396.858Z" fill="#E27EFF"/>
<path d="M174.404 338.172C146.591 349.684 114.537 355.536 114.537 355.536C102.352 357.876 75.6111 366.385 60.3741 396.858C58.6691 400.268 57.1271 404.052 55.7261 408.143C77.2001 438.557 105.425 463.863 138.221 481.88V443.052C138.221 374.54 240.411 364.964 240.411 364.964C240.061 364.265 239.723 363.559 239.397 362.848C214.972 360.529 195.279 353.478 179.952 345.21C178.595 344.479 177.402 343.478 176.447 342.267C175.493 341.056 174.797 339.663 174.404 338.172Z" fill="#BA5BD4"/>
<path d="M340.258 330.117L321.056 299.275C318.354 294.935 313.16 292.874 308.202 294.121C293.215 297.892 275.625 300.739 256.666 300.739C254.69 300.739 252.733 300.701 250.788 300.641V317.048C247.89 318.484 239.063 323.583 235.181 334.033C231.982 342.646 232.978 352.623 238.14 363.716C237.109 363.846 235.726 364.034 234.052 364.292C241.555 365.206 249.107 365.661 256.665 365.657C290.322 365.657 316.496 357.074 335.901 346.611C341.841 343.409 343.824 335.845 340.258 330.117Z" fill="#BA5BD4"/>
<path d="M205.118 294.112C200.159 292.863 194.964 294.924 192.261 299.265L173.061 330.105C169.495 335.833 171.477 343.395 177.416 346.599C193.576 355.316 214.447 362.71 240.404 364.947C222.945 330.193 252.288 318.005 252.288 318.005V300.683C234.999 300.287 218.95 297.596 205.118 294.112Z" fill="#C339EA"/>
<path d="M344.664 282.618C337.915 258.98 335.117 240.527 334.511 226.268C329.385 244.765 322.686 261.143 314.526 275.106C309.85 283.105 304.006 290.36 297.187 296.633C287.048 355.784 306.007 400.343 320.927 424.693C324.071 429.824 332.449 427.672 332.368 421.747C331.697 372.709 362.837 346.267 344.664 282.618Z" fill="#45304C"/>
<path d="M256.655 39.38C272.381 39.38 285.722 42.407 296.952 47.071C297.269 45.021 297.436 42.92 297.436 40.781C297.435 18.258 279.177 0 256.655 0C234.133 0 215.874 18.258 215.874 40.781C215.874 42.92 216.041 45.02 216.358 47.071C227.588 42.407 240.929 39.38 256.655 39.38Z" fill="#56415E"/>
<path d="M256.655 30.74C240.627 14.712 256.655 0 256.655 0C234.133 0 215.874 18.258 215.874 40.781C215.874 42.92 216.041 45.02 216.358 47.071C227.588 42.407 240.929 39.381 256.655 39.381V30.74Z" fill="#45304C"/>
<path d="M209.232 52.997C221.815 46.505 237.462 42 256.655 42C275.848 42 291.495 46.505 304.078 52.998C306.295 54.1456 308.458 55.3929 310.562 56.736C297.932 40.9 278.485 30.74 256.655 30.74C234.825 30.74 215.378 40.899 202.748 56.735C204.852 55.3917 207.015 54.1444 209.232 52.997Z" fill="#D3DCFB"/>
<path d="M176.96 166.835C178.101 163.102 179.662 159.87 181.773 157.491C183.673 155.35 184.865 152.701 184.95 149.867C185.444 133.312 191.807 79.676 252.914 103.101C255.315 104.021 257.995 104.021 260.396 103.101C321.503 79.676 327.866 133.312 328.36 149.867C328.445 152.701 329.637 155.35 331.537 157.491C333.648 159.87 335.209 163.102 336.35 166.835V166.834C339.446 164.77 344.253 163.347 348.597 163.449L348.598 163.436V123.255C348.598 92.806 331.624 64.587 304.078 50.376C291.495 43.884 275.848 39.379 256.655 39.379C237.462 39.379 221.815 43.884 209.232 50.376C181.686 64.587 164.712 92.806 164.712 123.255V163.436L164.713 163.449C169.057 163.348 173.864 164.771 176.96 166.835Z" fill="#56415E"/>
<path d="M256.655 39.38C237.462 39.38 221.815 43.885 209.232 50.377C181.686 64.588 164.712 92.807 164.712 123.256V163.437L164.713 163.45C169.058 163.348 173.864 164.772 176.96 166.835C178.101 163.102 179.662 159.87 181.773 157.491C183.673 155.35 184.865 152.701 184.95 149.867C185.435 133.63 191.572 81.73 249.463 101.846C249.221 101.53 248.989 101.212 248.727 100.9C221.565 68.57 256.655 39.38 256.655 39.38Z" fill="#45304C"/>
<path d="M176.203 214.572C176.203 214.572 171.216 183.011 176.96 164.215C171.748 160.741 161.679 159.045 157.151 163.472C147.879 172.536 154.673 186.224 157.924 194.87C158.904 197.455 159.553 200.153 159.857 202.9C160.49 208.745 163.659 217.3 176.799 217.099C176.6 216.257 176.397 215.428 176.203 214.572Z" fill="#FC9460"/>
<path d="M356.159 163.472C351.63 159.045 341.561 160.741 336.35 164.215C342.094 183.011 337.107 214.572 337.107 214.572C336.913 215.428 336.71 216.257 336.511 217.099C349.652 217.301 352.821 208.746 353.454 202.9C353.745 200.21 354.389 197.525 355.387 194.87C358.637 186.224 365.431 172.536 356.159 163.472Z" fill="#FFAA7B"/>
<path d="M332.027 154.436C330.134 152.302 329.092 149.809 329.015 147.227C328.722 137.399 326.24 113.345 309.57 102.244C297.745 94.3701 281.122 94.452 260.162 102.49C257.904 103.357 255.406 103.357 253.148 102.49C250.702 101.55 248.224 100.694 245.719 99.923C228.751 111.301 226.219 135.832 225.92 145.865C225.841 148.507 224.777 151.055 222.839 153.237C212.164 165.267 214.502 200.413 216.992 214.882C222.508 239.228 230.498 260.457 240.736 277.98C249.204 292.472 261.237 304.32 275.883 312.755C292.15 304.428 305.435 291.975 314.526 276.415C324.536 259.285 332.349 238.526 337.754 214.673C340.094 199.8 342.586 166.335 332.027 154.436Z" fill="#FFC7AB"/>
<path d="M241.562 276.416C231.55 259.281 223.737 238.523 218.344 214.716C215.908 200.567 213.623 166.2 224.061 154.436C225.956 152.302 226.997 149.81 227.074 147.227C227.367 137.399 229.849 113.343 246.519 102.243C247.236 101.766 247.973 101.318 248.726 100.9C229.842 94.494 214.719 94.934 203.74 102.243C187.069 113.344 184.588 137.399 184.295 147.227C184.218 149.81 183.177 152.302 181.282 154.436C170.843 166.199 173.129 200.567 175.565 214.716C180.959 238.523 188.772 259.281 198.783 276.416C208.947 293.811 224.34 307.34 243.296 315.541C247.515 317.358 252.06 318.295 256.654 318.295C261.248 318.295 265.793 317.358 270.012 315.541C272.746 314.353 275.426 313.043 278.043 311.615C262.761 303.308 250.248 291.28 241.562 276.416Z" fill="#FFAA7B"/>
<path d="M406.128 73.3831C390.103 86.4541 373.972 107.431 383.479 135.256C400.447 184.919 356.078 252.746 405.93 302.598C435.267 331.935 470.335 330.535 494.233 324.416C498.657 305.999 501.003 286.773 501.003 266.998C501.002 188.259 463.85 118.205 406.128 73.3831ZM105.872 73.3831C121.897 86.4541 138.028 107.431 128.521 135.256C111.553 184.919 155.922 252.746 106.07 302.598C76.733 331.935 41.665 330.535 17.767 324.416C13.343 305.999 10.998 286.773 10.998 266.998C10.998 188.259 48.15 118.205 105.872 73.3831Z" fill="#724EBF"/>
<path d="M422.118 447.066C417.187 427.332 404.958 415.886 395.044 409.618C388.793 405.666 380.642 410.114 380.642 417.51V477.96C395.515 469.149 409.417 458.794 422.118 447.066Z" fill="#BA5BD4"/>
<path d="M316.888 318.295C316.888 345.058 321.303 371.158 340.339 374.393C347.812 348.594 356.237 323.15 344.664 282.618C344.385 281.641 344.123 280.686 343.857 279.726C331.486 286.358 316.888 298.397 316.888 318.295Z" fill="#56415E"/>
</svg>
