<svg width="512" height="512" viewBox="0 0 512 512" fill="none" xmlns="http://www.w3.org/2000/svg">
<path d="M470.135 386.1C489.789 350.84 501.002 310.231 501.002 266.998C501.002 131.687 391.311 21.9961 256 21.9961C120.689 21.9961 10.998 131.687 10.998 266.998C10.998 310.231 22.211 350.84 41.865 386.1H470.135Z" fill="#D0CFFF"/>
<path d="M330.102 315.01L330.109 315.003C329.519 314.837 328.918 314.685 328.321 314.527C328.123 314.475 327.927 314.418 327.729 314.366L327.725 314.369C325.705 313.834 323.677 313.33 321.641 312.856C311.489 302.704 308.915 283.457 308.452 269.991C303.154 276.162 297.594 281.324 292.281 285.449C281.929 293.488 269.156 297.854 256 297.854C242.844 297.854 230.07 293.488 219.719 285.449C214.406 281.324 208.845 276.161 203.547 269.991C203.083 283.457 200.51 302.704 190.357 312.856C188.281 313.335 186.229 313.855 184.188 314.391L184.184 314.388C183.995 314.437 183.808 314.491 183.619 314.541C183.015 314.701 182.407 314.855 181.805 315.02L181.816 315.03C172.553 317.568 163.465 320.706 154.61 324.424V348.289C171.057 370.77 193.063 384.786 205.659 390.08C211.32 392.459 217.354 393.665 223.595 393.665H241.279L245.604 395.165H266.394L270.719 393.665H288.403C294.643 393.665 300.677 392.458 306.338 390.08C318.863 384.815 340.693 370.929 357.11 348.669V324.31C348.316 320.634 339.295 317.527 330.102 315.01Z" fill="#FFAA7B"/>
<path d="M219.719 285.451C214.406 281.325 208.845 276.163 203.547 269.992C203.083 283.458 200.51 302.705 190.358 312.857C188.281 313.336 186.23 313.856 184.189 314.393L184.185 314.39C183.996 314.44 183.809 314.493 183.62 314.544C183.016 314.704 182.408 314.858 181.806 315.023C181.81 315.027 181.814 315.03 181.818 315.033C178.167 316.033 174.579 317.146 171.02 318.32C180.932 341.987 201.738 382.744 223.75 371.455C254.299 355.788 256 297.855 256 297.855C242.844 297.855 230.07 293.489 219.719 285.451Z" fill="#FC9460"/>
<path d="M343.885 363.085C330.269 375.668 315.704 383.147 306.339 387.083C300.678 389.462 294.644 390.668 288.404 390.668H270.72L266.395 392.168H245.605L241.28 390.668H223.596C217.356 390.668 211.322 389.461 205.66 387.083C203.395 386.128 201.158 385.108 198.95 384.027V458.451C198.95 458.451 179.877 477.289 193.924 504.051C213.751 509.229 234.55 512 256 512C315.505 512 370.05 490.78 412.496 455.502V451.88C412.496 414.625 367.845 379.339 343.885 363.085Z" fill="#6E327F"/>
<path d="M200.95 458.451V384.985C191.817 380.708 179.672 373.747 168.183 363.147C144.272 379.359 99.6001 414.627 99.6001 451.866V455.584C127.321 478.6 160.199 495.618 196.243 504.654C181.588 477.573 200.95 458.451 200.95 458.451Z" fill="#C533EC"/>
<path d="M470.135 386.1C469.921 385.687 469.712 385.268 469.496 384.86C461.495 369.81 448.058 358.375 432.026 352.585L364.197 328.089C365.446 330.608 366.296 334.335 363.879 338.44C357.556 349.183 349.801 357.909 341.83 364.937C364.232 379.868 409.611 414.652 409.611 451.434V457.851C434.106 438.111 454.72 413.756 470.135 386.1Z" fill="#B55DCD"/>
<path d="M148.12 338.441C145.703 334.336 146.554 330.609 147.802 328.09L79.973 352.586C63.942 358.376 50.505 369.811 42.504 384.861C42.287 385.269 42.078 385.688 41.865 386.101C57.28 413.756 77.893 438.112 102.389 457.852V451.435C102.389 414.653 147.767 379.87 170.169 364.938C162.198 357.91 154.444 349.184 148.12 338.441Z" fill="#6E327F"/>
<path d="M371.142 293.231C363.731 275.939 339.694 265.832 308.049 255.237L305.878 272.566C305.878 272.566 325.849 351.374 266.395 392.168H295.313C303.413 392.168 311.424 390.465 318.803 387.122C328.079 382.918 341.087 376.085 352.681 366.61C374.351 348.9 382.167 318.955 371.142 293.231ZM208.384 341.28C197.371 338.446 169.134 334.749 161.612 368.434C172.6 376.966 184.528 383.193 193.197 387.122C200.575 390.466 208.586 392.168 216.686 392.168H245.604C225.134 378.122 214.081 359.57 208.384 341.28Z" fill="#A42CC4"/>
<path d="M206.122 272.566L203.951 255.237C172.306 265.832 148.269 275.938 140.858 293.231C129.833 318.955 137.649 348.9 159.32 366.609C160.612 367.662 161.926 368.688 163.261 369.686C170.772 329.477 209.482 344.604 209.482 344.604L209.483 344.597C196.989 308.633 206.122 272.566 206.122 272.566Z" fill="#B55DCD"/>
<path d="M200.95 458.451C196.257 458.451 192.418 454.612 192.418 449.919V379.836C192.418 375.143 196.257 371.304 200.95 371.304C205.643 371.304 209.482 375.143 209.482 379.836V449.919C209.482 454.612 205.643 458.451 200.95 458.451ZM310.772 458.451C306.079 458.451 302.24 454.612 302.24 449.919V379.836C302.24 375.143 306.079 371.304 310.772 371.304C315.465 371.304 319.304 375.143 319.304 379.836V449.919C319.304 454.612 315.465 458.451 310.772 458.451Z" fill="#DEEEFF"/>
<path d="M411.6 77.7461C393.829 89.8911 380.38 108.488 385.063 136.446C397.333 209.699 340.815 247.071 429.146 286.345C460.551 300.309 480.331 316.645 492.648 330.612C498.092 310.326 501.002 289.002 501.002 266.997C501.002 190.773 466.19 122.681 411.6 77.7461ZM100.4 77.7461C118.171 89.8911 131.62 108.488 126.937 136.446C114.667 209.699 171.185 247.071 82.854 286.345C51.449 300.309 31.669 316.645 19.352 330.612C13.908 310.326 10.998 289.002 10.998 266.997C10.998 190.773 45.81 122.681 100.4 77.7461Z" fill="#724EBF"/>
<path d="M351.433 158.082C357.937 131.559 363.249 91.817 349.186 58.749C321.993 -5.19497 247.986 -1.25297 228.374 0.999033C226.315 1.23503 225.282 3.58403 226.453 5.29303C238.209 22.455 192.152 6.90604 167.119 59.416C151.253 92.695 155.24 131.877 161.04 158.083L351.433 158.082Z" fill="#945230"/>
<path d="M254.926 70.454C254.926 70.454 247.554 53.5 266.223 39.5C284.867 25.518 257.074 0.396985 257.002 0.331985C244.497 -0.460015 234.108 0.339985 228.374 0.998985C226.315 1.23598 225.282 3.58398 226.453 5.29298C238.209 22.455 192.152 6.90599 167.119 59.416C151.253 92.696 155.24 131.878 161.04 158.083H204.561L218.385 152.591L254.926 70.454Z" fill="#753616"/>
<path d="M355.256 154.721C351.153 150.961 341.98 152.867 338.446 155.169C339.217 160.009 339.267 164.937 338.596 169.792L334.426 200.164C334.426 202.612 334.349 205.014 334.207 207.374C344.376 210.441 350.427 201.312 351.278 195.047C351.643 192.35 352.244 189.69 353.074 187.098C355.778 178.652 365.536 164.142 355.256 154.721Z" fill="#FFAA7B"/>
<path d="M156.744 154.721C160.847 150.961 170.02 152.867 173.554 155.169C172.783 160.009 172.733 164.937 173.405 169.792L177.575 200.164C177.575 202.612 177.652 205.014 177.794 207.374C167.625 210.441 161.574 201.312 160.723 195.047C160.358 192.35 159.757 189.69 158.927 187.098C156.222 178.652 146.464 164.142 156.744 154.721Z" fill="#FC9460"/>
<path d="M333.324 138.518C328.703 131.269 330.234 125.348 330.309 118.415C330.309 118.415 334.207 86.498 294.898 75.165C283.518 71.884 267.459 69.922 251.004 70.553C239.553 78.626 232.012 90.472 232.012 107.258C232.012 114.973 233.675 121.002 228.94 128.824C223.835 137.259 220.864 149.426 222.551 162.366L226.8 194.955C226.8 241.807 250.548 273.652 270.749 290.172C273.599 292.494 276.659 294.547 279.889 296.303C284.306 294.36 288.468 291.882 292.28 288.923C312.111 273.523 335.424 243.838 335.424 200.165L339.594 169.793C341.239 157.826 338.387 146.462 333.324 138.518Z" fill="#FFC7AB"/>
<path d="M270.955 288.264C251.124 272.046 227.81 240.784 227.81 194.789L223.639 162.796C221.983 150.094 224.899 138.149 229.911 129.868C234.558 122.189 232.926 116.271 232.926 108.696C232.926 90.623 241.814 78.367 254.925 70.453C219.989 70.936 181.69 82.778 181.69 118.415C181.69 125.607 183.323 131.227 178.675 138.519C173.663 146.382 170.747 157.724 172.403 169.786L176.574 200.165C176.574 243.839 199.887 273.524 219.719 288.923C230.07 296.961 242.844 301.327 256 301.327C265.051 301.327 273.92 299.261 281.944 295.354C278.027 293.41 274.341 291.032 270.955 288.264Z" fill="#FFAA7B"/>
<path d="M312.145 235.343C309.826 221.515 299.849 207.669 286.529 204.648L266.17 198.667C262.631 197.628 259.088 199.443 257.663 202.525C257.606 202.651 257.514 202.757 257.398 202.832C257.282 202.907 257.147 202.947 257.009 202.947C256.871 202.947 256.736 202.907 256.62 202.832C256.504 202.757 256.412 202.651 256.355 202.525C254.929 199.443 251.386 197.628 247.847 198.667L227.488 204.648C226.983 204.763 226.485 204.897 225.99 205.042H226.18C224.023 210.116 220.295 222.717 230.907 232.344C234.372 230.572 238.048 229.248 241.848 228.406L245.484 227.603C250.784 226.433 254.883 221.259 256.386 215.746C256.558 215.113 257.458 215.113 257.631 215.746C259.134 221.259 263.232 226.433 268.533 227.603L272.17 228.406C282.486 230.686 291.7 236.454 298.258 244.737C296.917 250.699 292.712 259.759 279.68 264.364C270.936 267.453 261.394 261.954 260.274 252.852L260.233 252.496C260.145 251.673 259.756 250.911 259.14 250.358C258.524 249.805 257.726 249.498 256.898 249.498C256.07 249.498 255.272 249.805 254.656 250.358C254.04 250.911 253.651 251.673 253.563 252.496L253.522 252.852C252.92 257.745 249.874 261.579 245.837 263.616C244.715 268.064 243.226 277.654 247.869 286.966C251.227 293.701 257.122 298.913 265.425 302.526C269.677 301.675 273.794 300.249 277.661 298.287C298.036 287.914 325.125 269.892 333.79 223.528C334.503 219.714 334.863 215.841 334.864 211.961C331.565 220.101 324.709 229.893 312.145 235.343Z" fill="#945230"/>
<path d="M234.194 298.276C244.714 303.637 256.739 304.849 267.951 301.946C240.553 291.326 246.216 267.405 247.707 262.499C245.757 263.875 243.504 264.763 241.139 265.088C238.774 265.413 236.365 265.165 234.116 264.365C222.085 260.114 216.91 252.063 214.685 246.16C219.259 239.905 225.339 234.908 232.361 231.632C220.808 221.642 226.291 208.104 228.073 204.477L227.488 204.649C213.905 207.729 203.792 222.066 201.737 236.162C187.84 230.922 180.606 220.526 177.137 211.962V211.966C177.137 215.839 177.498 219.71 178.209 223.517C186.858 269.872 213.817 287.892 234.194 298.276Z" fill="#753616"/>
</svg>
