<svg width="512" height="512" viewBox="0 0 512 512" fill="none" xmlns="http://www.w3.org/2000/svg">
<path d="M256 496C303.468 496 349.869 481.924 389.337 455.553C428.805 429.181 459.566 391.698 477.731 347.844C495.896 303.99 500.649 255.734 491.388 209.178C482.128 162.623 459.27 119.859 425.706 86.2945C392.141 52.7299 349.377 29.8721 302.822 20.6116C256.266 11.3512 208.01 16.104 164.156 34.269C120.302 52.4341 82.8188 83.1955 56.4473 122.663C30.0758 162.131 16 208.533 16 256C16 319.652 41.2856 380.697 86.2944 425.706C131.303 470.714 192.348 496 256 496ZM256 105.92C262.329 105.92 268.516 107.797 273.778 111.313C279.041 114.829 283.142 119.827 285.564 125.674C287.986 131.521 288.62 137.956 287.385 144.163C286.15 150.37 283.103 156.072 278.627 160.548C274.152 165.023 268.45 168.071 262.243 169.305C256.035 170.54 249.601 169.906 243.754 167.484C237.907 165.062 232.909 160.961 229.393 155.698C225.877 150.436 224 144.249 224 137.92C224 129.433 227.371 121.294 233.373 115.293C239.374 109.292 247.513 105.92 256 105.92ZM224 256C224 247.513 227.371 239.374 233.373 233.373C239.374 227.372 247.513 224 256 224C264.487 224 272.626 227.372 278.627 233.373C284.629 239.374 288 247.513 288 256V384C288 392.487 284.629 400.626 278.627 406.628C272.626 412.629 264.487 416 256 416C247.513 416 239.374 412.629 233.373 406.628C227.371 400.626 224 392.487 224 384V256Z" fill="#0000FF"/>
</svg>
