<svg width="512" height="512" viewBox="0 0 512 512" fill="none" xmlns="http://www.w3.org/2000/svg">
<path d="M256 160C244.924 160 234.097 156.716 224.888 150.562C215.679 144.409 208.501 135.663 204.263 125.43C200.024 115.198 198.915 103.938 201.076 93.075C203.237 82.212 208.57 72.2338 216.402 64.4021C224.234 56.5703 234.212 51.2368 245.075 49.076C255.938 46.9153 267.198 48.0243 277.43 52.2628C287.663 56.5013 296.409 63.6789 302.562 72.8881C308.716 82.0972 312 92.9243 312 104C311.983 118.847 306.078 133.081 295.579 143.579C285.081 154.078 270.847 159.983 256 160ZM256 64C248.089 64 240.355 66.346 233.777 70.7412C227.199 75.1365 222.072 81.3836 219.045 88.6927C216.017 96.0017 215.225 104.044 216.769 111.804C218.312 119.563 222.122 126.69 227.716 132.284C233.31 137.878 240.437 141.688 248.196 143.231C255.956 144.775 263.998 143.983 271.307 140.955C278.616 137.928 284.864 132.801 289.259 126.223C293.654 119.645 296 111.911 296 104C295.987 93.3953 291.769 83.2285 284.27 75.7298C276.772 68.2311 266.605 64.0127 256 64Z" fill="black"/>
<path d="M320 248H304V208C304.011 205.9 304.847 203.889 306.328 202.4L413.168 94.8562C414.978 93.0337 415.995 90.5691 415.995 88.0002C415.995 85.4313 414.978 82.9667 413.168 81.1442C411.465 79.4458 409.187 78.4483 406.784 78.349C404.381 78.2498 402.029 79.056 400.192 80.6082L345.424 127.144C320.456 148.355 288.761 160 256 160C223.239 160 191.544 148.355 166.576 127.144L111.808 80.6082C109.905 78.977 107.441 78.1512 104.94 78.3058C102.438 78.4604 100.095 79.5834 98.4071 81.4365C96.7194 83.2897 95.8198 85.7273 95.8991 88.2325C95.9784 90.7377 97.0304 93.1135 98.8319 94.8562L205.672 202.4C207.153 203.889 207.989 205.9 208 208V248H192V211.304L87.4879 106.144C82.8066 101.467 80.114 95.1623 79.9729 88.5466C79.8318 81.9309 82.253 75.5167 86.7306 70.6445C91.2083 65.7723 97.3957 62.8193 104 62.4025C110.604 61.9858 117.113 64.1376 122.168 68.4082L176.936 114.952C199.011 133.705 227.034 144.001 256 144.001C284.966 144.001 312.988 133.705 335.064 114.952L389.832 68.4082C394.886 64.1376 401.396 61.9858 408 62.4025C414.604 62.8193 420.792 65.7723 425.269 70.6445C429.747 75.5167 432.168 81.9309 432.027 88.5466C431.886 95.1623 429.193 101.467 424.512 106.144L320 211.304V248ZM256 464C190.576 464 172.216 447.536 170.344 445.656C168.844 444.156 168 442.122 168 440V408C168.017 393.153 173.922 378.919 184.421 368.421C194.919 357.923 209.153 352.017 224 352H288C302.847 352.017 317.081 357.923 327.579 368.421C338.078 378.919 343.983 393.153 344 408V440C343.999 442.122 343.156 444.156 341.656 445.656C339.784 447.536 321.424 464 256 464ZM184 435.88C190.216 439.448 209.904 448 256 448C301.888 448 321.6 439.52 328 435.84V408C327.987 397.395 323.769 387.229 316.27 379.73C308.771 372.231 298.605 368.013 288 368H224C213.395 368.013 203.228 372.231 195.73 379.73C188.231 387.229 184.013 397.395 184 408V435.88Z" fill="black"/>
<path d="M256 368C244.924 368 234.097 364.716 224.888 358.562C215.679 352.409 208.501 343.663 204.263 333.43C200.024 323.198 198.915 311.938 201.076 301.075C203.237 290.212 208.57 280.234 216.402 272.402C224.234 264.57 234.212 259.237 245.075 257.076C255.938 254.915 267.198 256.024 277.43 260.263C287.663 264.501 296.409 271.679 302.562 280.888C308.716 290.097 312 300.924 312 312C311.983 326.847 306.078 341.081 295.579 351.579C285.081 362.078 270.847 367.983 256 368ZM256 272C248.089 272 240.355 274.346 233.777 278.741C227.199 283.136 222.072 289.384 219.045 296.693C216.017 304.002 215.225 312.044 216.769 319.804C218.312 327.563 222.122 334.69 227.716 340.284C233.31 345.878 240.437 349.688 248.196 351.231C255.956 352.775 263.998 351.983 271.307 348.955C278.616 345.928 284.864 340.801 289.259 334.223C293.654 327.645 296 319.911 296 312C295.987 301.395 291.769 291.228 284.27 283.73C276.772 276.231 266.605 272.013 256 272ZM408 440C391.408 440.193 374.835 438.835 358.496 435.944L361.504 420.232C376.853 422.925 392.418 424.187 408 424C453.888 424 473.6 415.52 480 411.84V384C479.987 373.395 475.769 363.228 468.27 355.73C460.772 348.231 450.605 344.013 440 344H376C369.398 343.995 362.898 345.626 357.081 348.748C351.263 351.87 346.31 356.384 342.664 361.888L329.336 353.032C334.44 345.328 341.373 339.01 349.517 334.641C357.66 330.273 366.759 327.991 376 328H440C454.847 328.017 469.081 333.922 479.579 344.421C490.078 354.919 495.983 369.153 496 384V416C496 418.122 495.156 420.156 493.656 421.656C491.784 423.536 473.424 440 408 440Z" fill="black"/>
<path d="M408 344C396.924 344 386.097 340.716 376.888 334.562C367.679 328.409 360.501 319.663 356.263 309.43C352.024 299.198 350.915 287.938 353.076 277.075C355.237 266.212 360.57 256.234 368.402 248.402C376.234 240.57 386.212 235.237 397.075 233.076C407.938 230.915 419.198 232.024 429.43 236.263C439.663 240.501 448.409 247.679 454.562 256.888C460.716 266.097 464 276.924 464 288C463.983 302.847 458.078 317.081 447.579 327.579C437.081 338.078 422.847 343.983 408 344ZM408 248C400.089 248 392.355 250.346 385.777 254.741C379.199 259.136 374.072 265.384 371.045 272.693C368.017 280.002 367.225 288.044 368.769 295.804C370.312 303.563 374.122 310.69 379.716 316.284C385.31 321.878 392.437 325.688 400.196 327.231C407.956 328.775 415.998 327.983 423.307 324.955C430.616 321.928 436.864 316.801 441.259 310.223C445.654 303.645 448 295.911 448 288C447.987 277.395 443.769 267.229 436.27 259.73C428.772 252.231 418.605 248.013 408 248ZM104 440C38.576 440 20.216 423.536 18.344 421.656C16.8436 420.156 16.0005 418.122 16 416V384C16.0169 369.153 21.9224 354.919 32.4207 344.421C42.9191 333.922 57.1531 328.017 72 328H136C145.241 327.991 154.34 330.273 162.483 334.641C170.627 339.01 177.56 345.328 182.664 353.032L169.336 361.888C165.69 356.384 160.737 351.87 154.92 348.748C149.102 345.627 142.602 343.995 136 344H72C61.3952 344.013 51.2285 348.231 43.7298 355.73C36.2311 363.229 32.0127 373.395 32 384V411.88C38.216 415.448 57.904 424 104 424C119.582 424.187 135.147 422.925 150.496 420.232L153.504 435.944C137.165 438.835 120.592 440.193 104 440Z" fill="black"/>
<path d="M104 344C92.9243 344 82.0972 340.716 72.8881 334.562C63.6789 328.409 56.5013 319.663 52.2628 309.43C48.0243 299.198 46.9153 287.938 49.076 277.075C51.2368 266.212 56.5703 256.234 64.4021 248.402C72.2338 240.57 82.212 235.237 93.075 233.076C103.938 230.915 115.198 232.024 125.43 236.263C135.663 240.501 144.409 247.679 150.562 256.888C156.716 266.097 160 276.924 160 288C159.983 302.847 154.078 317.081 143.579 327.579C133.081 338.078 118.847 343.983 104 344ZM104 248C96.0888 248 88.3552 250.346 81.7772 254.741C75.1993 259.136 70.0723 265.384 67.0448 272.693C64.0173 280.002 63.2252 288.044 64.7686 295.804C66.312 303.563 70.1217 310.69 75.7158 316.284C81.3099 321.878 88.4372 325.688 96.1964 327.231C103.956 328.775 111.998 327.983 119.307 324.955C126.616 321.928 132.864 316.801 137.259 310.223C141.654 303.645 144 295.911 144 288C143.987 277.395 139.769 267.229 132.27 259.73C124.772 252.231 114.605 248.013 104 248Z" fill="black"/>
</svg>
