<svg width="30" height="31" viewBox="0 0 30 31" fill="none" xmlns="http://www.w3.org/2000/svg">
<path d="M29.9281 28.886L24.6343 16.5337C24.5663 16.375 24.4532 16.2397 24.309 16.1447C24.1648 16.0497 23.996 15.999 23.8233 15.999H6.17719C5.82427 15.999 5.50534 16.2092 5.36635 16.5337L0.0725178 28.886C-0.176586 29.4671 0.249861 30.1159 0.883356 30.1159H29.1171C29.7492 30.1159 30.1777 29.4682 29.9282 28.886H29.9281Z" fill="#E0F4FE"/>
<path d="M29.1171 30.1159H15.0002V15.999H23.8233C24.1762 15.999 24.4951 16.2095 24.6344 16.5337L29.9282 28.886C30.1777 29.4682 29.7494 30.1159 29.1171 30.1159H29.1171Z" fill="#BCDCFE"/>
<path d="M3.74763 25.083L3.00961 26.5107C3.00961 26.5107 2.42118 27.8843 2.22107 28.3512H12.8703L14.0124 28.2143L8.48167 22.6558L3.74763 25.083Z" fill="#159BE1"/>
<path d="M26.1391 24.7922L25.858 23.8682L23.2417 17.7637H20.0847L17.9484 17.8023L8.48169 22.6559L14.0124 28.2144L15.3656 28.3513H17.2013L19.3125 28.2923L26.1391 24.7922Z" fill="#5DC983"/>
<path d="M26.1391 24.792L19.3124 28.2925L17.2014 28.3513H15.3655L15.0002 28.3143V19.3142L17.9483 17.8026L19.3754 17.7766L20.0847 17.7637H23.2414L25.8578 23.8682L26.1391 24.792ZM6.75887 17.7637C6.21801 19.0258 4.10254 23.961 4.10254 23.961L3.74756 25.0831L17.9481 17.8023L16.2119 17.7637H6.75887Z" fill="#0EAB61"/>
<path d="M17.9484 17.8025L15.0002 19.3142V17.7637H16.212L17.9484 17.8025Z" fill="#0EAB61"/>
<path d="M26.1391 24.7925L19.3125 28.2925L21.0383 28.3516H27.779C27.3711 27.3993 26.9631 26.4471 26.555 25.4949L26.1391 24.7925Z" fill="#159BE1"/>
<path d="M9.96009 22.9459L15.3656 28.3513H12.8703L8.30935 23.7904L3.0144 26.4997L4.10258 23.961C4.24734 23.887 16.0672 17.8377 16.212 17.7637H20.0847L9.96009 22.9459Z" fill="#FED941"/>
<path d="M15.0002 27.9863L15.3655 28.3516H15.0002V27.9863Z" fill="#FEB99E"/>
<path d="M20.0847 17.7637L19.0278 18.3048L15.0002 20.3658V18.3836C15.7249 18.0131 16.1845 17.7778 16.212 17.7637L20.0847 17.7637ZM26.555 25.4944L21.0383 28.3513H17.2014L25.8579 23.8681L26.555 25.4944Z" fill="#FCBE29"/>
<path d="M15.0002 0C10.6872 0 7.05945 3.16159 7.05945 8.64659C7.05945 14.2065 14.0375 22.295 14.3345 22.6367C14.6857 23.0406 15.3143 23.0413 15.666 22.6367C15.9631 22.295 22.9409 14.2065 22.9409 8.64659C22.9409 3.21218 19.2467 0 15.0002 0ZM15.0002 10.5877C13.5407 10.5877 12.3533 9.4002 12.3533 7.94075C12.3533 6.4813 13.5407 5.29383 15.0002 5.29383C16.4597 5.29383 17.6471 6.4813 17.6471 7.94075C17.6471 9.4002 16.4596 10.5877 15.0002 10.5877Z" fill="#EE3616"/>
<path d="M15.0002 0V5.29383C16.4597 5.29383 17.6472 6.48147 17.6472 7.94075C17.6472 9.40002 16.4597 10.5877 15.0002 10.5877V22.9399C15.2456 22.9399 15.4903 22.8388 15.6661 22.6364C18.2684 19.6448 22.941 13.1289 22.941 8.64659C22.941 3.21218 19.2465 0 15.0002 0Z" fill="#CB0010"/>
</svg>
