<svg width="496" height="496" viewBox="0 0 496 496" fill="none" xmlns="http://www.w3.org/2000/svg">
<path d="M480 303.797H432V279.797C432 266.565 421.232 255.797 408 255.797H328C321.104 255.797 314.92 258.765 310.536 263.437L224 249.021V228.973C247.872 215.117 264 189.333 264 159.797H272C285.232 159.797 296 149.029 296 135.797C296 122.565 285.232 111.797 272 111.797H268.16L272.544 101.629C276.595 92.2115 278.352 81.9665 277.67 71.7372C276.989 61.5079 273.888 51.5865 268.624 42.7893C261.907 31.5516 251.917 22.6338 239.992 17.2293L217.664 7.06128C191.304 -4.93872 158.992 -1.42672 135.816 15.9413L123.2 25.3973L123.216 25.4213C110.571 28.7088 99.7106 36.8073 92.9522 47.9893C88.6207 55.1703 86.1801 63.3321 85.8583 71.7122C85.5365 80.0923 87.3441 88.4172 91.1122 95.9093L99.0562 111.797H96.0002C82.7682 111.797 72.0002 122.565 72.0002 135.797C72.0002 149.029 82.7682 159.797 96.0002 159.797H104C104 189.333 120.128 215.117 144 228.973V249.021L46.7922 265.221C33.7011 267.368 21.8023 274.106 13.2279 284.228C4.65357 294.35 -0.0357902 307.195 0.000205698 320.461V487.797C0.000205698 489.919 0.84306 491.954 2.34335 493.454C3.84364 494.954 5.87847 495.797 8.00021 495.797H480C488.824 495.797 496 488.621 496 479.797V319.797C496 310.973 488.824 303.797 480 303.797ZM416 279.797V303.797H365.344C361.08 290.229 351.817 278.79 339.432 271.797H408C412.408 271.797 416 275.381 416 279.797ZM320 281.357C326.137 282.622 331.891 285.312 336.796 289.21C341.702 293.108 345.622 298.105 348.24 303.797H320V281.357ZM280 135.797C280 140.205 276.408 143.797 272 143.797H264V127.797H272C276.408 127.797 280 131.389 280 135.797ZM106.672 56.2213C109.691 51.2245 113.946 47.0888 119.026 44.2124C124.107 41.3359 129.842 39.8154 135.68 39.7973C148.224 39.7973 159.864 46.0293 166.832 56.4613L169.344 60.2293L182.656 51.3573L180.144 47.5893C173.033 36.9337 162.32 29.1972 149.968 25.7973C168.08 14.5653 191.544 12.7413 211.032 21.6133L233.36 31.7813C242.331 35.8506 249.847 42.5599 254.904 51.0133C258.865 57.6323 261.198 65.0971 261.712 72.7938C262.225 80.4904 260.903 88.199 257.856 95.2853L257.32 96.5333L247.16 76.2133C246.636 75.1644 245.889 74.2434 244.969 73.5155C244.05 72.7877 242.982 72.2708 241.841 72.0013C240.7 71.7319 239.514 71.7166 238.366 71.9564C237.219 72.1963 236.138 72.6854 235.2 73.3893L222.4 82.9893C211.392 91.2533 197.752 95.7973 184 95.7973C170.248 95.7973 156.608 91.2533 145.6 82.9973L132.8 73.3973C131.863 72.6934 130.782 72.2043 129.634 71.9644C128.486 71.7246 127.3 71.7399 126.159 72.0093C125.018 72.2788 123.95 72.7957 123.031 73.5235C122.112 74.2514 121.364 75.1724 120.84 76.2213L110 97.9093L105.424 88.7573C102.864 83.6709 101.636 78.0185 101.854 72.3284C102.072 66.6383 103.73 61.0966 106.672 56.2213ZM96.0002 143.797C91.5922 143.797 88.0002 140.205 88.0002 135.797C88.0002 131.389 91.5922 127.797 96.0002 127.797H104V143.797H96.0002ZM120 159.797V113.685L130.864 91.9493L136 95.7973C149.76 106.117 166.808 111.797 184 111.797C201.192 111.797 218.24 106.117 232 95.7973L237.136 91.9493L248 113.685V159.797C248 195.085 219.288 223.797 184 223.797C148.712 223.797 120 195.085 120 159.797ZM184 239.797C192.142 239.802 200.236 238.558 208 236.109V252.485L184 276.485L160 252.485V236.109C167.765 238.558 175.859 239.802 184 239.797ZM181.416 327.797H186.584L199.64 360.437L184 428.221L168.36 360.437L181.416 327.797ZM199.168 294.621L187.72 311.797H180.28L168.824 294.621L171.496 286.613L178.344 293.461C179.845 294.96 181.881 295.801 184.002 295.8C186.123 295.798 188.157 294.954 189.656 293.453L196.504 286.605L199.168 294.621ZM96.0002 479.797V343.797H80.0002V479.797H16.0002V320.461C15.9757 310.985 19.3256 301.81 25.4501 294.579C31.5745 287.347 40.0733 282.533 49.4242 280.997L149.256 264.365L158.848 273.957L152.408 293.269C152.021 294.425 151.904 295.654 152.066 296.862C152.228 298.07 152.666 299.225 153.344 300.237L167.008 320.733L152.568 356.829C151.964 358.344 151.836 360.007 152.2 361.597L176.2 465.597C176.603 467.365 177.594 468.943 179.011 470.073C180.428 471.204 182.187 471.82 184 471.82C185.813 471.82 187.572 471.204 188.989 470.073C190.406 468.943 191.397 467.365 191.8 465.597L215.8 361.597C216.16 360.013 216.04 358.349 215.432 356.829L200.992 320.733L214.656 300.237C216.024 298.181 216.368 295.613 215.592 293.269L209.152 273.957L218.744 264.365L304.12 278.589C304.104 278.997 304 279.381 304 279.797V303.797H256C247.176 303.797 240 310.973 240 319.797V479.797H96.0002ZM264 479.797H256V463.797H480.008V479.797H264ZM480.008 447.797H256V382.909C261.2 388.255 267.419 392.504 274.29 395.405C281.16 398.305 288.543 399.799 296 399.797H344V407.797C344 421.029 354.768 431.797 368 431.797C381.232 431.797 392 421.029 392 407.797V399.797H440C447.459 399.797 454.842 398.302 461.713 395.402C468.585 392.501 474.805 388.253 480.008 382.909V447.797ZM360 407.797V367.797H376V407.797C375.908 409.857 375.025 411.802 373.535 413.227C372.045 414.652 370.062 415.447 368 415.447C365.938 415.447 363.956 414.652 362.466 413.227C360.975 411.802 360.092 409.857 360 407.797ZM480 343.797C480 365.853 462.056 383.797 440 383.797H392V359.797C392 357.676 391.157 355.641 389.657 354.14C388.157 352.64 386.122 351.797 384 351.797H352C349.878 351.797 347.844 352.64 346.343 354.14C344.843 355.641 344 357.676 344 359.797V383.797H296C273.944 383.797 256 365.853 256 343.797V319.797H480V343.797Z" fill="black"/>
</svg>
