<svg width="512" height="512" viewBox="0 0 512 512" fill="none" xmlns="http://www.w3.org/2000/svg">
<path fill-rule="evenodd" clip-rule="evenodd" d="M234.667 85.3333C215.056 85.3333 195.637 89.1959 177.519 96.7006C159.401 104.205 142.939 115.205 129.072 129.072C115.205 142.939 104.205 159.401 96.7007 177.519C89.196 195.637 85.3334 215.056 85.3334 234.667C85.3334 254.277 89.196 273.696 96.7007 291.814C104.205 309.932 115.205 326.394 129.072 340.261C142.939 354.128 159.401 365.128 177.519 372.633C195.637 380.137 215.056 384 234.667 384C274.272 384 312.256 368.267 340.261 340.261C368.267 312.256 384 274.272 384 234.667C384 195.061 368.267 157.077 340.261 129.072C312.256 101.067 274.272 85.3333 234.667 85.3333ZM42.6667 234.667C42.6675 203.998 50.0149 173.776 64.094 146.53C78.173 119.284 98.574 95.8071 123.589 78.0645C148.604 60.3218 177.506 48.8297 207.874 44.55C238.243 40.2704 269.195 43.3278 298.139 53.4664C327.083 63.6049 353.178 80.5295 374.238 102.824C395.298 125.118 410.712 152.132 419.188 181.606C427.664 211.08 428.957 242.156 422.957 272.232C416.957 302.308 403.841 330.509 384.704 354.475L463.083 432.917C465.12 434.885 466.746 437.239 467.864 439.842C468.982 442.445 469.57 445.244 469.595 448.077C469.619 450.909 469.08 453.719 468.007 456.34C466.934 458.962 465.35 461.344 463.347 463.347C461.344 465.35 458.962 466.934 456.34 468.007C453.719 469.08 450.91 469.619 448.077 469.595C445.244 469.57 442.445 468.982 439.842 467.863C437.239 466.745 434.885 465.12 432.917 463.083L354.56 384.64C326.315 407.221 292.267 421.367 256.337 425.448C220.406 429.529 184.053 423.381 151.463 407.71C118.873 392.039 91.3713 367.483 72.1237 336.869C52.8761 306.256 42.6652 270.828 42.6667 234.667ZM213.333 128C213.333 122.342 215.581 116.916 219.582 112.915C223.583 108.914 229.009 106.667 234.667 106.667C268.614 106.667 301.172 120.152 325.176 144.157C349.181 168.162 362.667 200.719 362.667 234.667C362.667 240.325 360.419 245.751 356.418 249.752C352.418 253.752 346.991 256 341.333 256C335.675 256 330.249 253.752 326.248 249.752C322.248 245.751 320 240.325 320 234.667C320 212.035 311.01 190.33 295.007 174.327C279.003 158.324 257.299 149.333 234.667 149.333C229.009 149.333 223.583 147.086 219.582 143.085C215.581 139.084 213.333 133.658 213.333 128Z" fill="white"/>
</svg>
