<svg width="512" height="512" viewBox="0 0 512 512" fill="none" xmlns="http://www.w3.org/2000/svg">
<g clip-path="url(#clip0_115_9)">
<path d="M256 512C397.385 512 512 397.385 512 256C512 114.615 397.385 0 256 0C114.615 0 0 114.615 0 256C0 397.385 114.615 512 256 512Z" fill="#00B100"/>
<path d="M175.975 380.976L82.6457 280.391C76.4542 273.757 73.1469 264.938 73.4492 255.868C73.7515 246.799 77.6388 238.22 84.2583 232.013C90.9184 225.847 99.7526 222.575 108.822 222.915C117.892 223.255 126.457 227.179 132.636 233.827L204.8 311.03L319.093 204.195C320.114 203.257 321.191 202.382 322.318 201.575L375.937 151.383C382.571 145.191 391.39 141.884 400.459 142.186C409.529 142.489 418.108 146.376 424.315 152.995C430.506 159.629 433.814 168.448 433.511 177.518C433.209 186.587 429.322 195.166 422.702 201.373L258.419 354.57L201.373 407.584L176.176 380.573L175.975 380.976Z" fill="white"/>
</g>
<defs>
<clipPath id="clip0_115_9">
<rect width="512" height="512" fill="white"/>
</clipPath>
</defs>
</svg>
